<svg width="20" height="20" viewBox="0 0 20 20" fill="none" xmlns="http://www.w3.org/2000/svg">
<path d="M9.14317 2.25705C9.53183 1.61123 10.4681 1.61123 10.8568 2.25705L12.7988 5.48405C12.9385 5.71606 13.1662 5.88153 13.43 5.94263L17.0992 6.79242C17.8335 6.96249 18.1228 7.85296 17.6287 8.42217L15.1598 11.2664C14.9823 11.4708 14.8953 11.7386 14.9187 12.0083L15.2443 15.7605C15.3095 16.5115 14.552 17.0618 13.858 16.7678L10.3901 15.2986C10.1407 15.193 9.85922 15.193 9.60989 15.2986L6.14196 16.7678C5.44793 17.0618 4.69045 16.5115 4.75562 15.7605L5.08126 12.0083C5.10467 11.7386 5.01768 11.4708 4.84017 11.2664L2.37123 8.42217C1.87713 7.85296 2.16646 6.96249 2.90077 6.79242L6.56995 5.94263C6.83376 5.88153 7.0615 5.71606 7.20113 5.48405L9.14317 2.25705Z" fill="#E4A802" stroke="#E4A802" stroke-width="1.25"/>
</svg>
